<?xml version="1.0" standalone="no"?>
<!DOCTYPE svg PUBLIC "-//W3C//DTD SVG 20010904//EN"
 "http://www.w3.org/TR/2001/REC-SVG-20010904/DTD/svg10.dtd">
<svg version="1.0" xmlns="http://www.w3.org/2000/svg"
 width="225.000000pt" height="225.000000pt" viewBox="0 0 225.000000 225.000000"
 preserveAspectRatio="xMidYMid meet">
<metadata>
Created by potrace 1.10, written by Peter Selinger 2001-2011
</metadata>
<g transform="translate(0.000000,225.000000) scale(0.100000,-0.100000)"
fill="#000000" stroke="none">
<path d="M805 2126 c-168 -39 -325 -138 -420 -267 -74 -101 -253 -421 -281
-504 -22 -64 -28 -103 -32 -201 -7 -197 18 -272 198 -579 45 -77 99 -164 121
-193 81 -106 226 -203 374 -249 53 -16 97 -18 365 -18 l305 0 80 28 c146 52
270 139 349 247 73 99 253 421 283 505 26 74 28 91 28 230 0 139 -2 156 -28
230 -30 84 -210 406 -283 505 -80 109 -224 207 -374 256 -47 15 -99 18 -340
20 -213 2 -300 0 -345 -10z m675 -35 c141 -48 250 -118 339 -218 55 -62 45
-47 136 -203 178 -305 195 -350 201 -515 4 -126 -12 -214 -56 -311 -40 -87
-217 -391 -258 -444 -90 -114 -230 -205 -377 -245 -74 -21 -107 -23 -316 -24
-333 -2 -427 20 -606 140 -79 54 -159 156 -257 328 -181 319 -191 347 -191
526 1 163 22 234 127 416 78 135 123 215 127 224 7 18 64 89 110 138 95 101
234 174 392 207 24 5 161 7 304 6 236 -3 266 -5 325 -25z"/>
<path d="M725 1925 c-85 -46 -114 -105 -115 -227 0 -85 6 -110 55 -229 7 -18
-30 -43 -106 -72 -56 -21 -91 -58 -112 -117 -41 -116 -50 -265 -19 -293 31
-28 83 -45 217 -67 144 -25 283 -23 384 4 l55 14 33 -34 c18 -19 45 -52 59
-74 14 -21 36 -45 48 -53 52 -33 52 -34 115 99 85 178 231 418 245 404 2 -3 6
-18 8 -34 2 -24 -3 -32 -32 -49 -43 -24 -50 -34 -50 -73 0 -39 17 -62 55 -73
27 -7 30 -12 27 -42 -4 -50 -53 -147 -103 -203 -55 -62 -142 -119 -222 -145
-87 -29 -104 -26 -111 20 -12 72 -97 64 -108 -11 -2 -16 -10 -26 -24 -28 -31
-4 -122 32 -191 78 -78 50 -104 51 -174 2 -95 -67 -90 -104 29 -191 119 -87
303 -137 475 -129 298 15 549 207 645 495 23 69 26 94 26 218 0 146 -15 227
-65 329 -22 45 -19 51 47 95 30 20 40 31 30 34 -8 3 -32 -6 -53 -19 -143 -96
-327 -352 -475 -661 -33 -69 -63 -121 -67 -117 -4 5 -29 37 -54 70 -81 107
-166 171 -302 224 -33 14 -61 25 -63 26 -2 1 28 63 65 138 l69 137 69 -52 c39
-29 105 -88 148 -132 42 -43 77 -74 77 -69 0 5 51 63 112 127 145 151 266 249
402 323 60 32 51 35 -30 11 l-41 -12 -39 43 c-61 68 -74 80 -150 130 -82 54
-191 97 -268 106 -46 6 -56 4 -75 -15 -19 -19 -21 -31 -19 -102 4 -92 1 -88
105 -125 35 -12 82 -33 105 -47 50 -30 138 -113 138 -131 0 -6 -56 -69 -123
-138 l-124 -127 -34 28 c-28 24 -33 34 -31 64 4 38 -15 82 -44 109 -11 9 -48
28 -84 43 -89 37 -93 41 -75 75 38 73 54 145 52 236 -2 78 -5 95 -27 127 -51
74 -214 121 -285 82z m195 -43 c83 -41 95 -65 93 -173 -3 -122 -33 -208 -90
-260 -104 -97 -213 -48 -272 123 -15 44 -18 74 -15 135 7 108 9 114 46 152 66
68 132 74 238 23z m386 -73 c90 -28 165 -66 239 -122 56 -43 131 -122 137
-146 2 -6 -28 -34 -66 -63 l-70 -53 -70 71 c-75 75 -142 114 -236 137 l-55 14
-3 78 c-2 43 -1 84 2 92 7 19 43 16 122 -8z m457 -404 c101 -233 61 -520 -100
-720 -210 -259 -568 -338 -867 -190 -89 44 -186 120 -186 146 0 12 24 35 69
65 l70 46 43 -35 c69 -56 191 -107 255 -107 21 0 23 5 23 45 0 32 5 47 18 54
31 17 52 -5 52 -54 0 -52 8 -55 95 -31 201 53 358 217 391 408 l6 37 -43 3
c-35 2 -46 8 -58 29 -13 24 -13 29 2 53 14 21 25 26 57 26 45 0 46 2 25 80 -8
30 -15 61 -15 67 0 19 121 156 129 146 4 -4 19 -35 34 -68z m-1053 15 c0 -34
28 -79 60 -95 70 -36 138 -7 159 68 l13 43 51 -26 c29 -14 71 -33 94 -42 43
-16 83 -65 83 -100 0 -24 -23 -23 -46 3 -25 28 -154 119 -168 119 -11 -1 -156
-278 -156 -298 0 -5 16 -13 35 -16 42 -8 188 -80 206 -102 19 -23 3 -29 -118
-44 -117 -15 -231 -5 -372 31 -105 27 -121 39 -121 93 0 100 45 263 81 293 8
6 41 21 74 34 33 12 71 30 85 40 32 24 40 23 40 -1z m200 -38 c0 -15 -35 -41
-56 -43 -42 -4 -64 2 -74 22 -11 19 -9 20 18 16 16 -3 45 -1 63 3 47 11 49 11
49 2z"/>
</g>
</svg>
